<svg viewBox="0 0 3204.33 3941.32" xmlns="http://www.w3.org/2000/svg" xmlns:xlink="http://www.w3.org/1999/xlink">
    <linearGradient id="a" gradientUnits="userSpaceOnUse" x1="3588.99" x2="1108.56" y1="4065.34" y2="984.8">
        <stop offset="0" stop-color="#dae3fe"/>
        <stop offset="1" stop-color="#e9effd"/>
    </linearGradient>
    <linearGradient id="b" gradientUnits="userSpaceOnUse" x1="2224.1" x2="159.67" y1="731.63" y2="3472.5">
        <stop offset="0" stop-color="#4f52ff"/>
        <stop offset="1" stop-color="#4042e2"/>
    </linearGradient>
    <linearGradient id="c" gradientTransform="matrix(.70710678 .70710678 -.70710678 .70710678 1776.8 -639.78)"
                    x1="2459.44" x2="395.02" xlink:href="#b" y1="764.41" y2="3505.27"/>
    <linearGradient id="d" gradientTransform="matrix(.70710678 .70710678 -.70710678 .70710678 1776.8 -639.78)"
                    gradientUnits="userSpaceOnUse" x1="1847.89" x2="1732.98" y1="349.24" y2="1255.06">
        <stop offset="0" stop-color="#ff928e"/>
        <stop offset="1" stop-color="#fe7062"/>
    </linearGradient>
    <linearGradient id="e" gradientTransform="matrix(-.99 -.12 -.12 .99 8264.53 715.42)" gradientUnits="userSpaceOnUse"
                    x1="5386.73" x2="5082.61" y1="2417.49" y2="2791.36">
        <stop offset="0" stop-color="#febbba"/>
        <stop offset="1" stop-color="#ff928e"/>
    </linearGradient>
    <linearGradient id="f" gradientTransform="matrix(.96019624 .27932629 -.27932629 .96019624 8902.93 797.67)"
                    gradientUnits="userSpaceOnUse" x1="-4905.16" x2="-5104.59" y1="3100.94" y2="3337.9">
        <stop offset="0" stop-color="#09005d"/>
        <stop offset="1" stop-color="#1a0f91"/>
    </linearGradient>
    <linearGradient id="g" x1="3254.34" x2="3068.44" xlink:href="#d" y1="2433.53" y2="2720.83"/>
    <linearGradient id="h" gradientTransform="matrix(.96019624 .27932629 -.27932629 .96019624 8902.93 797.67)"
                    x1="-5193.94" x2="-5177.7" xlink:href="#e" y1="3518.73" y2="3403.37"/>
    <linearGradient id="i" gradientTransform="matrix(.96019624 .27932629 -.27932629 .96019624 8902.93 797.67)"
                    x1="-5268.43" x2="-5116.51" xlink:href="#e" y1="3271.55" y2="3446.21"/>
    <linearGradient id="j" x1="-5000.68" x2="-5200.11" xlink:href="#f" y1="3020.56" y2="3257.53"/>
    <linearGradient id="k" gradientTransform="matrix(.96019624 .27932629 -.27932629 .96019624 8902.93 797.67)"
                    x1="-5230.48" x2="-5078.56" xlink:href="#e" y1="3238.53" y2="3413.19"/>
    <linearGradient id="l" gradientTransform="matrix(-1 -.01 -.01 1 8008.42 56.94)" x1="4769.09" x2="5131.54"
                    xlink:href="#e" y1="4036.4" y2="3396.61"/>
    <linearGradient id="m" gradientTransform="matrix(-1 -.01 -.01 1 8008.42 56.94)" x1="4848.1" x2="4954.05"
                    xlink:href="#f" y1="3810.19" y2="3810.19"/>
    <linearGradient id="n" gradientTransform="matrix(-1 -.01 -.01 1 8008.42 56.94)" x1="5179.83" x2="4637.78"
                    xlink:href="#e" y1="3563.1" y2="3736.43"/>
    <linearGradient id="o" gradientTransform="matrix(-1 -.01 -.01 1 8008.42 56.94)" x1="4946.33" x2="5072.62"
                    xlink:href="#f" y1="3829.33" y2="3829.33"/>
    <linearGradient id="p" x1="3402.12" x2="3097.92" xlink:href="#f" y1="2894.3" y2="3127.52"/>
    <linearGradient id="q" x1="4766.13" x2="5367.38" xlink:href="#e" y1="2957.65" y2="2269.9"/>
    <linearGradient id="r" gradientTransform="matrix(-.98 -.22 -.22 .98 3385.21 288.53)" x1="535.52" x2="475.13"
                    xlink:href="#f" y1="3613.34" y2="3732.09"/>
    <linearGradient id="s" gradientTransform="matrix(-.98 -.22 -.22 .98 3385.21 288.53)" x1="420.69" x2="480.84"
                    xlink:href="#e" y1="3660.59" y2="3660.59"/>
    <linearGradient id="t" gradientTransform="matrix(-.98 -.22 -.22 .98 3385.21 288.53)" x1="337.43" x2="593.07"
                    xlink:href="#f" y1="3501.42" y2="3143.12"/>
    <linearGradient id="u" gradientTransform="matrix(-.98 -.22 -.22 .98 3385.21 288.53)" x1="500.48" x2="291.12"
                    xlink:href="#f" y1="3733.41" y2="4007.18"/>
    <linearGradient id="v" gradientTransform="matrix(-.98 -.22 -.22 .98 3385.21 288.53)" x1="395.71" x2="557.47"
                    xlink:href="#b" y1="3792.7" y2="3792.7"/>
    <linearGradient id="w" gradientTransform="matrix(-.98 -.22 -.22 .98 3385.21 288.53)" x1="377.19" x2="433.65"
                    xlink:href="#e" y1="3716.11" y2="3716.11"/>
    <linearGradient id="x" gradientTransform="matrix(-.98 -.22 -.22 .98 3385.21 288.53)" x1="245.29" x2="259.38"
                    xlink:href="#f" y1="3679.97" y2="3200.9"/>
    <linearGradient id="y" x1="2525.93" x2="1983.48" xlink:href="#d" y1="2919.09" y2="3339.87"/>
    <linearGradient id="z" gradientTransform="matrix(-.98 -.22 -.22 .98 3385.21 288.53)" x1="580.38" x2="777.33"
                    xlink:href="#e" y1="3121.84" y2="3121.84"/>
    <linearGradient id="A" x1="1902.29" x2="2419.4" xlink:href="#d" y1="3503.31" y2="3183.93"/>
    <linearGradient id="B" gradientTransform="matrix(-.98 -.22 -.22 .98 3385.21 288.53)" x1="361.75" x2="492.42"
                    xlink:href="#e" y1="2774.38" y2="2774.38"/>
    <linearGradient id="C" x1="1933.55" x2="2450.65" xlink:href="#d" y1="3553.91" y2="3234.52"/>
    <linearGradient id="D" gradientTransform="matrix(-1 .1 .1 1 3094.51 -105.42)" x1="885.05" x2="450.17"
                    xlink:href="#e" y1="3272.75" y2="4028.45"/>
    <linearGradient id="E" gradientTransform="matrix(-.65 -.76 -.76 .65 2800.06 2578.44)" x1="152.76" x2="-32.63"
                    xlink:href="#e" y1="447.35" y2="692.6"/>
    <linearGradient id="F" gradientTransform="matrix(-.65 -.76 -.76 .65 2800.06 2578.44)" x1="34.05" x2="229.19"
                    xlink:href="#f" y1="432.87" y2="432.87"/>
    <linearGradient id="G" gradientTransform="matrix(-.65 -.76 -.76 .65 2800.06 2578.44)" x1="-80.44" x2="50.58"
                    xlink:href="#e" y1="615.86" y2="481.43"/>
    <linearGradient id="H" gradientTransform="matrix(.99878042 -.04937274 .04937274 .99878042 -10528.59 -55.03)"
                    x1="12725.34" x2="12469.17" xlink:href="#f" y1="3896.02" y2="3966.23"/>
    <linearGradient id="I" gradientTransform="translate(-10487.12)" x1="12514.34" x2="12332.58" xlink:href="#f"
                    y1="3042.19" y2="3234.31"/>
    <linearGradient id="J" x1="2809.97" x2="1445.22" xlink:href="#a" y1="3057.44" y2="1604.65"/>
    <linearGradient id="K" x1="1341.4" x2="1146.2" xlink:href="#d" y1="925.72" y2="2487.34"/>
    <linearGradient id="L" x1="2715.55" x2="1449" xlink:href="#b" y1="2697.32" y2="2016.38"/>
    <linearGradient id="M" x1="1828.38" x2="2600.11" xlink:href="#b" y1="1993.43" y2="1180.84"/>
    <linearGradient id="N" gradientTransform="matrix(.90092559 -.43397359 .43397359 .90092559 -642.43 1214.72)"
                    gradientUnits="userSpaceOnUse" x1="3515.58" x2="1648.44" y1="223.78" y2="2050.33">
        <stop offset="0" stop-color="#2b3582"/>
        <stop offset="1" stop-color="#150e42"/>
    </linearGradient>
    <linearGradient id="O" gradientTransform="matrix(.94 .33 -.33 .94 809.09 202.66)" x1="1396.24" x2="1214.01"
                    xlink:href="#f" y1="1543.38" y2="1721.65"/>
    <linearGradient id="P" gradientTransform="matrix(.95706691 -.28986711 .28986711 .95706691 -334.52 890.07)"
                    x1="2105.19" x2="1922.96" xlink:href="#f" y1="1156.02" y2="1334.28"/>
    <linearGradient id="Q" gradientTransform="matrix(.52576861 .85062763 -.85062763 .52576861 2582.01 -1571.01)"
                    x1="2770.28" x2="2588.06" xlink:href="#f" y1="1433.75" y2="1612.02"/>
    <linearGradient id="R" gradientTransform="translate(-288.15 -242.09)" x1="3325.75" x2="3143.52" xlink:href="#f"
                    y1="885.6" y2="1063.86"/>
    <linearGradient id="S" gradientTransform="matrix(.78822561 .61538637 -.61538637 .78822561 672.31 -2765.97)"
                    x1="4012.77" x2="3830.55" xlink:href="#f" y1="490.92" y2="669.19"/>
    <linearGradient id="T" x1="491.69" x2="620.28" xlink:href="#b" y1="3618.17" y2="3618.17"/>
    <linearGradient id="U" gradientTransform="translate(-1140.73)" x1="1632.42" x2="1757.38" xlink:href="#f"
                    y1="3592.97" y2="3592.97"/>
    <linearGradient id="V" gradientTransform="translate(-1140.73)" x1="1644.3" x2="1680.52" xlink:href="#e" y1="3557.78"
                    y2="3557.78"/>
    <linearGradient id="W" x1="235.34" x2="284.62" xlink:href="#b" y1="3615.39" y2="3615.39"/>
    <linearGradient id="X" gradientTransform="translate(-1140.73)" x1="1376.43" x2="1448.76" xlink:href="#f"
                    y1="3577.45" y2="3577.45"/>
    <linearGradient id="Y" gradientTransform="translate(-1140.73)" x1="1414.03" x2="1457.31" xlink:href="#e"
                    y1="3527.59" y2="3527.59"/>
    <linearGradient id="Z" x1="-172.9" x2="707.78" xlink:href="#b" y1="4012.35" y2="3059.03"/>
    <linearGradient id="aa" gradientTransform="translate(-1140.73)" x1="-204.99" x2="228.54" xlink:href="#d"
                    y1="4325.63" y2="3989.7"/>
    <linearGradient id="ab" x1="512.54" x2="526.16" xlink:href="#b" y1="2768.95" y2="2989.13"/>
    <linearGradient id="ac" gradientTransform="translate(-1140.73)" x1="1612.35" x2="1458.25" xlink:href="#e"
                    y1="2896.62" y2="3033.07"/>
    <linearGradient id="ad" gradientTransform="translate(-1140.73)" x1="-280.06" x2="153.47" xlink:href="#d"
                    y1="4228.76" y2="3892.83"/>
    <linearGradient id="ae" gradientTransform="translate(-1140.73)" x1="-141.24" x2="292.29" xlink:href="#d"
                    y1="4407.91" y2="4071.98"/>
    <linearGradient id="af" gradientTransform="translate(-1140.73)" x1="1901.22" x2="2022.57" xlink:href="#e"
                    y1="2909.52" y2="2909.52"/>
    <linearGradient id="ag" gradientTransform="translate(-1140.73)" x1="1783.25" x2="1781.93" xlink:href="#e"
                    y1="2585.21" y2="2811.84"/>
    <linearGradient id="ah" x1="973.95" x2="299.82" xlink:href="#f" y1="2873.34" y2="3123.02"/>
    <linearGradient id="ai" gradientUnits="userSpaceOnUse" x1="670.39" x2="1253.72" y1="2683.85" y2="2683.85">
        <stop offset="0" stop-color="#b37cff"/>
        <stop offset="1" stop-color="#f895e7"/>
    </linearGradient>
    <linearGradient id="aj" gradientTransform="translate(-1140.73)" x1="2013.59" x2="2662.67" xlink:href="#f"
                    y1="2716.63" y2="2716.63"/>
    <linearGradient id="ak" gradientTransform="matrix(.98975132 -.14280168 .14280168 .98975132 -1279.79 -1480.94)"
                    x1="1400.11" x2="1288.55" xlink:href="#e" y1="4272.84" y2="4420.41"/>
    <linearGradient id="al" x1="614.35" x2="1001.4" xlink:href="#f" y1="2572.24" y2="2621.17"/>
    <linearGradient id="am" gradientTransform="matrix(.98975132 -.14280168 .14280168 .98975132 -1279.79 -1480.94)"
                    x1="1236.72" x2="1326.2" xlink:href="#e" y1="4389.71" y2="4297.91"/>
    <linearGradient id="an" gradientTransform="translate(-1140.73)" x1="1673.2" x2="1519.1" xlink:href="#e" y1="2965.34"
                    y2="3101.79"/>
    <linearGradient id="ao" gradientTransform="translate(-1140.73)" x1="2009.68" x2="2053.14" xlink:href="#e"
                    y1="2895.27" y2="2895.27"/>
    <path d="m2906.61 2850.49c-57 60-110.88 98.66-153.48 129.22-500.66 359.23-1093.08 254.52-1219 228.95-185.91-37.77-545.3-110.76-805.13-416.31-393.09-462.28-331.88-1190.59-27-1671.35 55.78-87.94 350.39-576 949.19-654.3 362.39-47.37 784.81 48.17 1090.72 304.46 642.17 537.98 596.45 1624.84 164.7 2079.33z"
          fill="url(#a)" transform="translate(-235.34 -32.78)"/>
    <circle cx="1660.69" cy="1824.89" fill="#bdd0fb" r="1074.29"
            transform="matrix(.70710678 -.70710678 .70710678 .70710678 -1039.33 1676)"/>
    <circle cx="1425.35" cy="1792.11" fill="url(#b)" r="916.86"/>
    <path d="m1660.68 2787.68c-530.87 0-962.78-431.9-962.78-962.79s431.91-962.78 962.78-962.78 962.79 431.9 962.79 962.78-431.91 962.79-962.79 962.79zm0-1879.65c-505.56 0-916.85 411.3-916.85 916.86s411.29 916.87 916.85 916.87 916.86-411.3 916.86-916.87-411.3-916.89-916.86-916.89z"
          fill="#fff" transform="translate(-235.34 -32.78)"/>
    <circle cx="1660.69" cy="1824.89" fill="url(#c)" r="558.96"
            transform="matrix(.70710678 -.70710678 .70710678 .70710678 -1039.33 1676)"/>
    <path d="m1660.68 2429.78c-333.53 0-604.88-271.35-604.88-604.89s271.35-604.89 604.88-604.89 604.89 271.35 604.89 604.88-271.35 604.9-604.89 604.9zm0-1117.93c-282.89 0-513 230.15-513 513s230.15 513.05 513 513.05 513.05-230.15 513.05-513-230.15-513.05-513.05-513.05z"
          fill="#fff" transform="translate(-235.34 -32.78)"/>
    <circle cx="1660.69" cy="1824.89" fill="url(#d)" r="216.56"
            transform="matrix(.70710678 -.70710678 .70710678 .70710678 -1039.33 1676)"/>
    <path d="m1660.68 2087.38c-144.73 0-262.48-117.75-262.48-262.49s117.75-262.48 262.48-262.48 262.49 117.75 262.49 262.48-117.75 262.49-262.49 262.49zm0-433.13c-94.09 0-170.63 76.55-170.63 170.64s76.54 170.64 170.63 170.64 170.64-76.54 170.64-170.64-76.55-170.64-170.64-170.64z"
          fill="#fff" transform="translate(-235.34 -32.78)"/>
    <g fill="#91b3fa" opacity=".3" transform="translate(-235.34 -32.78)">
        <path d="m1090.59 642.25a8.31 8.31 0 0 1 -11.76 0c-6.3-6.31-13-12.44-19.83-18.22a8.3 8.3 0 0 1 -1.1-11.58l.1-.13a8.31 8.31 0 0 1 11.71-1c7.22 6.08 14.24 12.54 20.88 19.18a8.3 8.3 0 0 1 .58 11.1c-.17.22-.37.4-.58.65zm-66.89-44c-7.58-4.79-15.43-9.3-23.35-13.41a8.31 8.31 0 1 1 7.65-14.84c8.33 4.32 16.6 9.06 24.57 14.1a8.31 8.31 0 0 1 2.58 11.47 7.69 7.69 0 0 1 -.57.8 8.32 8.32 0 0 1 -10.88 1.83zm-63.46-30.79c-8.43-3-17.09-5.62-25.75-7.86a8.31 8.31 0 1 1 4.16-16.09c9.12 2.36 18.24 5.14 27.12 8.27a8.31 8.31 0 0 1 -5.53 15.68zm-68.76-15.83c-8.89-1-17.93-1.65-26.86-1.9a8.31 8.31 0 1 1 .46-16.62c9.41.26 18.93.94 28.28 2a8.31 8.31 0 0 1 -1.88 16.52zm-70.57-.11c-8.87 1-17.83 2.36-26.61 4.1a8.31 8.31 0 1 1 -3.22-16.31c9.25-1.83 18.67-3.28 28-4.31a8.31 8.31 0 1 1 1.82 16.52zm-68.83 15.48c-8.45 2.92-16.87 6.25-25 9.88a8.32 8.32 0 1 1 -6.76-15.2c8.6-3.82 17.48-7.32 26.37-10.39a8.31 8.31 0 0 1 5.39 15.71zm-212 224.33a8.31 8.31 0 0 1 -5.95-10.14c2.37-9.1 5.17-18.22 8.32-27.11a8.31 8.31 0 0 1 15.67 5.56c-3 8.44-5.65 17.1-7.9 25.74a8.19 8.19 0 0 1 -1.59 3.14 8.31 8.31 0 0 1 -8.57 2.79zm148.38-194c-7.58 4.72-15.05 9.84-22.2 15.2a8.31 8.31 0 1 1 -10-13.3c7.52-5.65 15.39-11 23.37-16a8.31 8.31 0 0 1 10.86 12.29 8.41 8.41 0 0 1 -2.05 1.82zm-124.11 125.73a8.32 8.32 0 0 1 -3.53-11.22c4.35-8.33 9.12-16.59 14.16-24.55a8.31 8.31 0 1 1 14 8.91c-4.79 7.56-9.32 15.41-13.45 23.33a9.15 9.15 0 0 1 -.92 1.4 8.32 8.32 0 0 1 -10.26 2.13zm68.84-81.91c-6.33 6.3-12.47 13-18.25 19.79a8.31 8.31 0 0 1 -12.81-10.6l.12-.14c6.08-7.19 12.54-14.2 19.2-20.83a8.31 8.31 0 0 1 12.33 11.11c-.18.23-.38.45-.59.67z"/>
        <path d="m539.07 846.08a8.28 8.28 0 0 0 1.83-4.61c.32-4.28.73-8.62 1.22-12.9a8.31 8.31 0 1 0 -16.52-1.89c-.52 4.5-1 9.06-1.28 13.56a8.31 8.31 0 0 0 14.75 5.84z"/>
    </g>
    <g fill="#91b3fa" opacity=".3" transform="translate(-235.34 -32.78)">
        <path d="m620.6 1086a8.29 8.29 0 0 0 -.27-10.77c-2.86-3.19-5.7-6.5-8.44-9.82a8.31 8.31 0 1 0 -12.83 10.59c2.89 3.5 5.88 7 8.89 10.35a8.33 8.33 0 0 0 11.74.64 7.53 7.53 0 0 0 .91-.99z"/>
        <path d="m1102.53 1086.77a8.31 8.31 0 1 1 -12.39-11.09c5.83-6.51 11.48-13.37 16.85-20.47a8.31 8.31 0 0 1 13.26 10q-3.49 4.62-7.11 9.07c-3.43 4.27-7 8.46-10.61 12.49zm31.21-56.25a8.31 8.31 0 0 1 -3.17-11.32c4.32-7.68 8.36-15.63 12-23.62a8.31 8.31 0 1 1 15.13 6.89c-3.84 8.42-8.09 16.79-12.64 24.87a8.09 8.09 0 0 1 -.79 1.18 8.34 8.34 0 0 1 -10.53 2zm-63.67 87.85c-7 6-14.46 11.74-22 17.12a8.31 8.31 0 1 1 -9.65-13.54c7.18-5.11 14.21-10.58 20.91-16.26a8.31 8.31 0 0 1 11.84 11.56 8.21 8.21 0 0 1 -1.1 1.12zm93.22-152.73a8.31 8.31 0 0 1 -5.58-10.35c2.52-8.43 4.71-17.07 6.51-25.67a8.31 8.31 0 1 1 16.27 3.4c-1.9 9.06-4.2 18.16-6.86 27a8.19 8.19 0 0 1 -1.5 2.85 8.32 8.32 0 0 1 -8.84 2.77zm-153.82 193.51c-8.19 4.28-16.68 8.27-25.23 11.86a8.31 8.31 0 0 1 -6.44-15.33c8.13-3.41 16.19-7.2 24-11.26a8.31 8.31 0 1 1 7.7 14.73zm-68.08 26.5c-8.95 2.4-18.1 4.44-27.21 6.08a8.31 8.31 0 0 1 -2.94-16.36c8.65-1.56 17.35-3.5 25.86-5.77a8.31 8.31 0 1 1 4.29 16.05zm-72.23 11c-9.27.39-18.65.39-27.89 0a8.31 8.31 0 1 1 .69-16.61c8.78.36 17.7.36 26.5 0a8.31 8.31 0 1 1 .7 16.61zm-72.93-5c-9.12-1.64-18.28-3.7-27.22-6.11a8.31 8.31 0 1 1 4.33-16c8.48 2.29 17.18 4.24 25.85 5.8a8.31 8.31 0 0 1 -3 16.36zm-70.08-20.89c-8.52-3.61-17-7.63-25.19-12a8.31 8.31 0 1 1 7.75-14.71c7.79 4.11 15.84 7.92 23.93 11.35a8.31 8.31 0 0 1 4.4 10.9 8.53 8.53 0 0 1 -1.19 2 8.32 8.32 0 0 1 -9.7 2.52zm-63.72-35.74c-5.55-4-11-8.14-16.33-12.43q-2.86-2.33-5.67-4.7a8.22 8.22 0 0 1 -1-11.71 8.31 8.31 0 0 1 11.72-1c1.78 1.5 3.58 3 5.39 4.47 5 4.07 10.25 8 15.52 11.82a8.31 8.31 0 0 1 1.93 11.59c-.1.14-.2.28-.31.41a8.3 8.3 0 0 1 -11.25 1.61z"/>
        <path d="m1184.87 892.58a8.27 8.27 0 0 0 1.84-4.66c.31-4.49.53-9.07.65-13.62a8.31 8.31 0 0 0 -16.62-.45c-.12 4.32-.33 8.67-.62 12.93a8.31 8.31 0 0 0 14.75 5.8z"/>
    </g>
    <path d="m1091.37 785a3.89 3.89 0 0 0 -3.31-3.06l-46.91-6a205.74 205.74 0 0 0 -37.53-55.17l11.61-45.77a3.89 3.89 0 0 0 -1.64-4.2l-47.43-31.1a3.88 3.88 0 0 0 -4.51.18l-37.37 28.92a206.2 206.2 0 0 0 -65.57-12.43l-24.19-40.62a3.89 3.89 0 0 0 -4.13-1.82l-55.53 11.55a3.88 3.88 0 0 0 -3.06 3.31l-6 46.91a205.83 205.83 0 0 0 -55.18 37.54l-45.8-11.62a3.9 3.9 0 0 0 -4.21 1.64l-31.09 47.43a3.89 3.89 0 0 0 .17 4.51l28.92 37.38a205.81 205.81 0 0 0 -12.43 65.56l-40.63 24.2a3.88 3.88 0 0 0 -1.81 4.13l11.56 55.53a3.88 3.88 0 0 0 3.31 3.07l46.9 6a206.17 206.17 0 0 0 37.54 55.17l-11.61 45.76a3.89 3.89 0 0 0 1.64 4.21l47.43 31.1a3.9 3.9 0 0 0 4.5-.18l37.38-28.91a206.13 206.13 0 0 0 65.61 12.44l24.19 40.63a3.89 3.89 0 0 0 4.13 1.81l55.53-11.55a3.87 3.87 0 0 0 3.06-3.31l6-46.9a206 206 0 0 0 55.09-37.54l45.81 11.61a3.88 3.88 0 0 0 4.2-1.63l31.1-47.44a3.86 3.86 0 0 0 -.18-4.5l-28.91-37.38a205.82 205.82 0 0 0 12.43-65.57l40.62-24.19a3.88 3.88 0 0 0 1.82-4.13z"
          fill="#91b3fa" transform="translate(-235.34 -32.78)"/>
    <path d="m891.91 905.5a57 57 0 1 1 5.73-6.1 57.08 57.08 0 0 1 -5.73 6.1zm-82.25-43.83a43.71 43.71 0 1 0 14.1-30.34 44 44 0 0 0 -4.44 4.73 43.37 43.37 0 0 0 -9.66 25.61z"
          fill="#bdd0fb" transform="translate(-235.34 -32.78)"/>
    <path d="m960.87 952.16q4.51-5.56 8.5-11.63c.83-1.27 1.65-2.56 2.44-3.86a140.43 140.43 0 0 0 10.14-20l.12-.28c.11-.27.22-.54.32-.81.21-.52.41-1 .62-1.57a3.33 3.33 0 0 0 -1-3.78 3.47 3.47 0 0 0 -.9-.52 3.34 3.34 0 0 0 -4.3 1.91 133.64 133.64 0 0 1 -126.59 85.56 132.71 132.71 0 0 1 -71.29-21.81 136 136 0 0 1 -11.1-8.11 133.54 133.54 0 1 1 204.5-161.81 3.32 3.32 0 1 0 6-2.9 139.75 139.75 0 0 0 -37.8-47.68 142.31 142.31 0 0 0 -11.5-8.41c-64.65-42.38-151.73-24.25-194.1 40.37a140.23 140.23 0 0 0 28.72 185.59q5.58 4.51 11.65 8.51a140.22 140.22 0 0 0 185.6-28.74z"
          fill="#bdd0fb" transform="translate(-235.34 -32.78)"/>
    <g fill="#91b3fa" opacity=".3" transform="translate(-235.34 -32.78)">
        <path d="m1440 559.22a5.13 5.13 0 0 0 .24-6.15c-2.48-3.59-5.09-7.15-7.78-10.58a5.13 5.13 0 0 0 -8.09 6.32c2.56 3.28 5.06 6.67 7.42 10.1a5.11 5.11 0 0 0 8.21.31z"/>
        <path d="m1414.3 529.3a5.13 5.13 0 0 1 -7.26 0 212.25 212.25 0 0 0 -16-14.4q-1.76-1.42-3.56-2.82a5.13 5.13 0 0 1 -.9-7.2 5.3 5.3 0 0 1 7.2-.91q1.89 1.47 3.73 2.95c5.82 4.73 11.48 9.81 16.8 15.1a5.15 5.15 0 0 1 .37 6.87q-.18.22-.38.41zm-48.37-31.91a213 213 0 0 0 -23.15-12 5.13 5.13 0 1 1 4.14-9.39 223.79 223.79 0 0 1 24.28 12.54 5.14 5.14 0 0 1 1.77 7.05 5 5 0 0 1 -.42.6 5.15 5.15 0 0 1 -6.62 1.2zm-47.62-21a209.8 209.8 0 0 0 -25.4-5.91 5.14 5.14 0 0 1 1.71-10.13 222.15 222.15 0 0 1 26.63 6.2 5.13 5.13 0 0 1 3.45 6.39 5.21 5.21 0 0 1 -.93 1.76 5.14 5.14 0 0 1 -5.46 1.71zm-51.31-8.62a211.73 211.73 0 0 0 -26.06.48 5.13 5.13 0 1 1 -.82-10.23 222.4 222.4 0 0 1 27.33-.51 5.14 5.14 0 0 1 4.91 5.35 5.14 5.14 0 0 1 -5.36 4.91zm-51.87 4.15a213.9 213.9 0 0 0 -25.17 6.8 5.13 5.13 0 0 1 -3.28-9.73 224.21 224.21 0 0 1 26.38-7.13 5.14 5.14 0 1 1 2.07 10.06zm-49.3 16.62a211.48 211.48 0 0 0 -22.73 12.72 5.13 5.13 0 0 1 -5.56-8.63 218.93 218.93 0 0 1 23.84-13.34 5.13 5.13 0 0 1 6.21 7.86 5.06 5.06 0 0 1 -1.78 1.39zm-43.72 28.16a210.55 210.55 0 0 0 -18.92 17.93 5.14 5.14 0 0 1 -7.51-7 224.06 224.06 0 0 1 19.84-18.79 5.14 5.14 0 0 1 7.29 7.17 5.86 5.86 0 0 1 -.72.69zm-56.48 62a5.13 5.13 0 0 1 -2-7 224.4 224.4 0 0 1 12.59-20.12c.69-1 1.39-2 2.09-2.94a5.14 5.14 0 0 1 8.3 6c-.66.91-1.32 1.83-2 2.77a211 211 0 0 0 -12 19.22 4.94 4.94 0 0 1 -.51.75 5.13 5.13 0 0 1 -6.49 1.37z"/>
    </g>
    <g fill="#91b3fa" opacity=".3" transform="translate(-235.34 -32.78)">
        <path d="m1428 821.09a224.43 224.43 0 0 1 -18.42 19.58 5.13 5.13 0 0 1 -7-7.47 211 211 0 0 0 17.56-18.68 5.14 5.14 0 0 1 7.86 6.48zm8.83-20.14a5.14 5.14 0 0 1 -1.52-7.1 213.12 213.12 0 0 0 12.61-22.33 5.13 5.13 0 0 1 9.23 4.5 225.28 225.28 0 0 1 -13.22 23.41 3.72 3.72 0 0 1 -.33.45 5.13 5.13 0 0 1 -6.81 1.12zm-47.92 56.93a222.14 222.14 0 0 1 -22.6 14.55 5.13 5.13 0 0 1 -5-8.95 212 212 0 0 0 21.57-13.88 5.13 5.13 0 0 1 7 7.37 4.9 4.9 0 0 1 -1.01.91zm72-103.53a5.13 5.13 0 0 1 -3.18-6.52 212 212 0 0 0 6.85-24.72 5.13 5.13 0 0 1 10 2.14 220.16 220.16 0 0 1 -7.18 25.92 5.06 5.06 0 0 1 -.87 1.56 5.13 5.13 0 0 1 -5.65 1.62zm-118.8 129.77a223.6 223.6 0 0 1 -25.44 8.69 5.14 5.14 0 0 1 -2.73-9.91 209 209 0 0 0 24.27-8.28 5.13 5.13 0 0 1 3.9 9.5zm-51.74 14.25a222.85 222.85 0 0 1 -26.78 2.35 5.13 5.13 0 1 1 -.28-10.26 214.88 214.88 0 0 0 25.55-2.24 5.13 5.13 0 1 1 1.51 10.15zm-53.66 1.46a221.45 221.45 0 0 1 -26.57-4.15 5.13 5.13 0 1 1 2.19-10 211.59 211.59 0 0 0 25.34 4 5.13 5.13 0 0 1 4.63 5.59 5 5 0 0 1 -1.12 2.75 5.14 5.14 0 0 1 -4.5 1.81z"/>
        <path d="m1477.47 701.19a5.11 5.11 0 0 0 1.13-2.79c.38-4.37.63-8.78.75-13.1a5.14 5.14 0 1 0 -10.27-.28c-.11 4.12-.35 8.32-.71 12.5a5.13 5.13 0 0 0 9.1 3.67z"/>
    </g>
    <path d="m1415.54 625.58a2.6 2.6 0 0 0 -2.22-2.05l-31.38-4a137.88 137.88 0 0 0 -25.12-36.92l7.77-30.65a2.6 2.6 0 0 0 -1.1-2.81l-31.74-20.81a2.59 2.59 0 0 0 -3 .12l-25 19.34a138.13 138.13 0 0 0 -43.88-8.31l-16.19-27.18a2.58 2.58 0 0 0 -2.76-1.22l-37.16 7.73a2.59 2.59 0 0 0 -2 2.21l-4 31.39a137.72 137.72 0 0 0 -36.92 25.12l-30.66-7.77a2.61 2.61 0 0 0 -2.81 1.09l-20.81 31.74a2.6 2.6 0 0 0 .12 3l19.35 25a137.76 137.76 0 0 0 -8.32 43.87l-27.18 16.19a2.63 2.63 0 0 0 -1.22 2.77l7.69 37.17a2.6 2.6 0 0 0 2.22 2l31.38 4a137.88 137.88 0 0 0 25.12 36.92l-7.77 30.65a2.59 2.59 0 0 0 1.05 2.83l31.74 20.81a2.6 2.6 0 0 0 3-.11l25-19.35a137.85 137.85 0 0 0 43.88 8.31l16.19 27.19a2.58 2.58 0 0 0 2.76 1.21l37.16-7.73a2.59 2.59 0 0 0 2-2.21l4-31.39a137.88 137.88 0 0 0 36.92-25.12l30.65 7.77a2.59 2.59 0 0 0 2.82-1.09l20.88-31.7a2.62 2.62 0 0 0 -.12-3l-19.35-25a137.76 137.76 0 0 0 8.32-43.87l27.18-16.19a2.62 2.62 0 0 0 1.22-2.76z"
          fill="#91b3fa" transform="translate(-235.34 -32.78)"/>
    <path d="m1282.53 706.68a38.54 38.54 0 1 1 4-4.19 39 39 0 0 1 -4 4.19zm-47.31-9.26a28.57 28.57 0 0 0 40.36 1.71 28.57 28.57 0 0 0 -38.65-42.08 29.52 29.52 0 0 0 -2.88 3.06 28.61 28.61 0 0 0 1.17 37.31z"
          fill="#bdd0fb" transform="translate(-235.34 -32.78)"/>
    <path d="m1330.53 739.16a96.78 96.78 0 0 0 5.8-7.94 97.77 97.77 0 0 0 9.09-17.49l.32-.82a5.15 5.15 0 0 0 -1.55-5.84 5.21 5.21 0 0 0 -1.4-.8 5.14 5.14 0 0 0 -6.63 2.94 86.71 86.71 0 0 1 -8.41 16.37l-.57.85a85.69 85.69 0 0 1 -31.47 28.31 87.23 87.23 0 0 1 -21.89 7.92h-.19l-.57.12a85.88 85.88 0 0 1 -65-12.34q-3.75-2.46-7.19-5.24a86.45 86.45 0 0 1 102-139.34 84.68 84.68 0 0 1 7.09 5.18 86.1 86.1 0 0 1 23.31 29.4 5.14 5.14 0 0 0 9.25-4.48 96.72 96.72 0 1 0 -148.11 117.2c2.56 2.07 5.24 4 8 5.87a96.86 96.86 0 0 0 128.12-19.87z"
          fill="#bdd0fb" transform="translate(-235.34 -32.78)"/>
    <path d="m2647.33 2548.19a4.72 4.72 0 0 1 8.73.93c4.23 15.23 14.48 41.82 36 51.26 1.08.47 2.11.95 3.1 1.44a10.91 10.91 0 0 0 -1.35-9.89c-6.68-10.21 5.39-24.16 5.39-24.16s.79 12.29 10.13 20c8 6.66 11.91 21.49 6.41 33.65-11.63 45.19-29.05 105 38.81 148.63s163.45-82.39 163.45-82.39l-47.49 150.34s-73.21 54-158.37-21.94-28.71-186.52-28.71-186.52-64.95-26.17-36.1-81.35z"
          fill="url(#e)" transform="translate(-235.34 -32.78)"/>
    <path d="m2929.83 2466.72s-19.66-88.18 81.36-64.84c0 0 49-8 51.53 38.27 0 0 31.61 20.83 8.46 60.88 0 0 93.94-36.28 134.87 46.06s3.3 127.64-36.13 139.44c0 0 31.95 16 16.82 52.27s-91.72 61.76-137 17.71c0 0-128.75 17-126.17-73.93 0 0-59.89-38.67 3-113.82s3.26-102.04 3.26-102.04z"
          fill="url(#f)" transform="translate(-235.34 -32.78)"/>
    <path d="m2924.28 2671.14c20.3-6.08 79.41-17.32 135.63 34.56a34.83 34.83 0 0 1 10 34.69c-15.1 55.59-54.94 219.84-20 290.9 0 0-61.56 67.86-128.72 13.17 0 0-30.13-131.33-69.6-189-27.25-39.8 43.45-149.46 61.34-176a20.94 20.94 0 0 1 11.35-8.32z"
          fill="url(#g)" transform="translate(-235.34 -32.78)"/>
    <path d="m2980.33 2560.7s30 84.91 32.28 122.38c0 0-33.18 15.08-64.44-10.38 0 0-3.28-84.82-8-100z" fill="url(#h)"
          transform="translate(-235.34 -32.78)"/>
    <path d="m2938.63 2444.91s-78.52 109.89-31.58 141.81 102.83-46.17 102.83-46.17 18.22-60.15-.83-80.55-70.42-15.09-70.42-15.09z"
          fill="url(#i)" transform="translate(-235.34 -32.78)"/>
    <path d="m2975 2418.65s-36.07 8.55-41.12 24.87 51.15 31.46 66.9 32.2l12.69 65.86s37.52-62 22.66-97.74-61.13-25.19-61.13-25.19z"
          fill="url(#j)" transform="translate(-235.34 -32.78)"/>
    <path d="m2994.66 2532.46s30.56-35.4 42.72-12.32-27.51 40.4-41.24 29.07z" fill="url(#k)"
          transform="translate(-235.34 -32.78)"/>
    <path d="m2842.81 3320.2c.23 6-10.24 53.25-15.94 78.48a41.54 41.54 0 0 0 4.48 29.8l197.29 332.06a45.2 45.2 0 0 1 5.18 12.91c3.62 15.59 11.11 53.78 7.2 88.52l-10.21 21.2 44.14-10 9.61-118.54-12.5-7.62a59.39 59.39 0 0 1 -24-28.11c-17.84-43.33-62.14-153.64-73.56-207.4-13-61.1-80.83-110.72-80.83-110.72l11.92-28.18z"
          fill="url(#l)" transform="translate(-235.34 -32.78)"/>
    <path d="m3124 3832.35s-23.84-37.79-26.64-52.5-10.61-40.69-25.31-32.87c0 0-6.92 71.46-4.54 99.39s-31.56 27-31.56 27-9.36 1.32-16.21 8.17c-4.73 4.73-1.35 12.94 5.33 13.37a191.48 191.48 0 0 0 47.29-2.68 14.48 14.48 0 0 0 11.64-13.33l4.89-82.24 30.07 38z"
          fill="url(#m)" transform="translate(-235.34 -32.78)"/>
    <path d="m2960.67 3373.09s7 297 7.9 339.21-6.66 135.67-49 163.61l18.4 13.63s23-19.55 45.46-57.16c25.24-42.26 32.88-50 32.88-50l-8.38-17.15a37.77 37.77 0 0 1 -3.06-24.19c9.13-44.23 39.62-191.35 47.93-223 9.82-37.4 10.52-87.34-23.63-129.15s-68.5-15.8-68.5-15.8z"
          fill="url(#n)" transform="translate(-235.34 -32.78)"/>
    <path d="m2999.72 3902.92a2.58 2.58 0 0 0 2.61-2.22c1.41-9.9 7.27-49.6 12.06-59.88 5.49-11.78 23.43-61.33 0-65.53 0 0-58.27 85.14-69.46 96.61s-25.3 4-25.3 4a42.11 42.11 0 0 0 -19.12 13.73 7.72 7.72 0 0 0 6.08 12.4l39.25.37a27.62 27.62 0 0 0 25.89-17.4c6.91-17.26 18.78-42.57 32.61-53.8l-7.19 68.83a2.61 2.61 0 0 0 2.58 2.88z"
          fill="url(#o)" transform="translate(-235.34 -32.78)"/>
    <path d="m2911.92 3012.43s8.84 28.2-4.75 74.63l-84.29 294.36a9.12 9.12 0 0 0 5.7 11.09c25.22 9 108.1 34.63 221.25 26.83a12.87 12.87 0 0 0 11.71-10c7.46-33.56 32.89-148.06 38.13-171.58 20-89.64 42.24-186.32-55.79-244.77-45.17 19.35-87.31 30.76-131.96 19.44z"
          fill="url(#p)" transform="translate(-235.34 -32.78)"/>
    <path d="m3068 2716.79s95.91 79.71 119.71 188.62-140.15 120.49-140.15 120.49-22.25-24.85-48.68-16-2-43.38 28.87-43.24 16.6 24.58 60.33 4.77c42.6-19.29 68.94-79-39.76-169.45a49.29 49.29 0 0 1 -14.36-19.54c-21.16-53.15-4.42-88 34.04-65.65z"
          fill="url(#q)" transform="translate(-235.34 -32.78)"/>
    <path d="m2198.26 3497.75h34.21v369.96h-34.21z" fill="#7d97f4"/>
    <path d="m2600.51 3907.63h-299.62v-19.8a2.47 2.47 0 0 1 2.47-2.47h294.64a2.47 2.47 0 0 1 2.47 2.47z" fill="#7d97f4"
          transform="translate(-235.34 -32.78)"/>
    <rect fill="#7d97f4" height="113.55" rx="39.1" width="400.37" x="2021.47" y="3409.66"/>
    <g transform="translate(-235.34 -32.78)">
        <path d="m2147.44 3788.14s-110.59 47.64-104.25 97.49c0 0 114.32-21.92 134.78-54.6s9.18-51.6 9.18-51.6z"
              fill="url(#r)"/>
        <path d="m2174.53 3733.7 5.62 48.54a16.06 16.06 0 0 1 -10.16 17.05 42 42 0 0 1 -14 2.14 18.72 18.72 0 0 1 -18.17-13.64l-10.88-39.26z"
              fill="url(#s)"/>
        <path d="m2416.13 3361.48s-203.41-9.41-304.63 49.62 5.13 342.33 5.13 342.33 26.44 5.69 64.51-14.66c0 0-54.33-207.39 40.05-243.47 106.1-40.57 215.85-30.7 215.85-30.7l-20.34-96.71z"
              fill="url(#t)"/>
        <path d="m2065.41 3863.76c23.13-5.07 91.72-33.49 102.14-33.11s25.18 16 25.18 16 2.54 8.53-4.91 20.78c-17.67 13.78-55.74 39.08-100 41.86-32.55 2-52.14-10.92-63.35-23.49 9.8-9.56 25.53-18.67 40.94-22.04z"
              fill="url(#u)"/>
        <path d="m2087.81 3909.28c44.27-2.78 82.34-28.08 100-41.86-5 8.28-14.63 18.25-32.66 28.44-44.73 25.27-118.66 21.59-133.32 15.9-11.74-4.56-8.11-15.52 2.62-26 11.22 12.6 30.81 25.55 63.36 23.52z"
              fill="url(#v)"/>
        <path d="m2217 3821.23c-1.51 5.73-17.71 22.94-27.08 32.53a18.44 18.44 0 0 1 -17.14 5.16 47.63 47.63 0 0 1 -12.26-4.31 12 12 0 0 1 -4.63-16.27l23.69-43.08z"
              fill="url(#w)"/>
        <path d="m2617.73 3344.42s17.75 126-33.59 151.71-163.94 42.61-202.72 107.94-108.42 193.57-171.84 230.41c0 0-36.2-11.77-46.78-29.58 0 0 75.24-197.8 106.63-245.88 27.19-41.63 66.94-101.61 123.41-127.56 16.17-7.42 17.43-24.57 14.59-42.14l-5.18-32z"
              fill="url(#x)"/>
        <path d="m2141.91 3201.63c72 20.55 104.19-182 103.9-186.94l110.35 129s-65.75 115.7-165 128c-25.12 3.12-46.49-1.23-64.41-9.44a103.26 103.26 0 0 0 15.16-60.62z"
              fill="url(#y)"/>
        <path d="m2008.62 3135.33c31.37-12.89 58 12.83 58 12.83 31.08 31.82 55.73 47.88 75.31 53.47a103.26 103.26 0 0 1 -15.2 60.66c-38.78-17.77-61.39-53.68-70.7-71.61a13.47 13.47 0 0 0 -17.76-6c-6.65 3.22-13.5 8.12-13.93 14.78-.85 13.14-16.48 13.92-16.57 9.07s12.11-30.81 12.11-30.81-36 23.12-50.08 32-26-5.75-26-5.75 33.45-55.75 64.82-68.64z"
              fill="url(#z)"/>
        <path d="m2590 2931.33s-96.72-66-330.32 53.36c0 0-24.06 30.49-12.79 64.87s150 220.44 155.36 307.78c0 0 94.81 55.82 217.89.49 0 0 41.27-230.64-30.14-426.5z"
              fill="url(#A)"/>
        <path d="m2388.59 2847 38.22 74.9a21.28 21.28 0 0 1 -2.2 23c-10.53 13.19-32.5 30.92-70 19.49a32.83 32.83 0 0 1 -22.38-23.82l-19.81-83.6z"
              fill="url(#B)"/>
        <path d="m2661.63 3192.88c6.54-45.53-113.77-133.78-113.77-133.78l42.14-127.77s229.58 163.84 181.3 297.64c-6.92 19.18-17.25 33.15-29.83 43.05-24.32-49.86-57.29-70.58-79.84-79.14z"
              fill="url(#C)"/>
        <path d="m2493.78 3205.51s136.09 38 164.33-3.42a21.68 21.68 0 0 0 3.52-9.21c22.55 8.56 55.52 29.28 79.84 79.14-64.62 50.84-189.21-6.15-223.06-23.23a23.91 23.91 0 0 0 -17.93-1.5c-12 3.76-32.9 9.59-44.53 8.95-17-.93-35.26 60.53-64.2 45 0-.03 13.15-105.03 102.03-95.73z"
              fill="url(#D)"/>
        <path d="m2339.6 2724.57c-1.22 1-51.63 89.1-77.3 134a26.41 26.41 0 0 0 12.54 37.38l11.12 4.76c15.19 6.51 47.86 12 60.72 1.58l81.06-85.56s-60.88-115.73-88.14-92.16z"
              fill="url(#E)"/>
        <path d="m2450.57 2793.38c9.94-5.58 21.89-16.89 12.59-36.89-9.46-20.33-28.15-22.1-40.19-20.8a10.08 10.08 0 0 1 -10.69-7.26c-.8-2.67-2.78-5-7.05-5.7a9.92 9.92 0 0 1 -7.82-12.41c2.88-10.81 2.39-25.49-15-36-30.85-18.67-59.69 8.46-67.72 32s26.57 41.93 48.66 45.68c16.79 2.84 25 22.22 27.95 31.34a10 10 0 0 1 -1.18 8.57l-24.64 37.45c6.77 8.53 12.78 17.54 18.7 26.65 2.22-2.39 4.16-4.37 5.67-5.76 10.7-9.81 29.74-4.75 37.58-2.05a9.94 9.94 0 0 0 7.78-.57c8.53-4.41 25.76-16.81 11.64-40.24a10.08 10.08 0 0 1 3.72-14.01z"
              fill="url(#F)"/>
        <path d="m2375.22 2872s15.76-40.5 33.66-38.24 31.31 20.75 8.2 39.95c-28.75 23.92-41.86-1.71-41.86-1.71z"
              fill="url(#G)"/>
        <path d="m2320 3292.16c-.24 0-.49 0-.73 0l-318-.35a14.23 14.23 0 1 1 0-28.46l318 .35a14.23 14.23 0 0 1 .7 28.44z"
              fill="url(#H)"/>
        <path d="m1715.5 3003.49h264.79a50.46 50.46 0 0 1 45.64 28.94l122.41 259.57h-329.06a30.66 30.66 0 0 1 -28.52-19.39l-94.93-240.2a21.14 21.14 0 0 1 19.67-28.92z"
              fill="url(#I)"/>
        <path d="m1902 3136.57c5.74 17.83 1.5 35.14-9.46 38.67s-24.51-8.06-30.25-25.88-1.5-35.14 9.47-38.67 24.55 8.06 30.24 25.88z"
              fill="#91b3fa"/>
        <path d="m1758.42 3974.1a13.8 13.8 0 0 1 -5.27-1 12.78 12.78 0 0 1 -7-17l280.21-630.64a13.54 13.54 0 0 1 17.56-6.77 12.79 12.79 0 0 1 7 17l-280.22 630.59a13.38 13.38 0 0 1 -12.28 7.82z"
              fill="#91b3fa"/>
        <path d="m2074.1 3974.1a13.38 13.38 0 0 1 -12.28-7.82l-280.22-630.65a12.79 12.79 0 0 1 7-17 13.52 13.52 0 0 1 17.55 6.77l280.22 630.64a12.8 12.8 0 0 1 -7 17 13.8 13.8 0 0 1 -5.27 1.06z"
              fill="#91b3fa"/>
        <path d="m2625.81 3974.1a13.89 13.89 0 0 1 -5.28-1 12.79 12.79 0 0 1 -7-17l280.21-630.64a13.54 13.54 0 0 1 17.56-6.77 12.77 12.77 0 0 1 7 17l-280.21 630.65a13.39 13.39 0 0 1 -12.28 7.76z"
              fill="#91b3fa"/>
        <path d="m2941.48 3974.1a13.38 13.38 0 0 1 -12.28-7.82l-280.2-630.65a12.79 12.79 0 0 1 7-17 13.52 13.52 0 0 1 17.55 6.77l280.22 630.64a12.8 12.8 0 0 1 -7 17 13.8 13.8 0 0 1 -5.29 1.06z"
              fill="#91b3fa"/>
        <path d="m2974.35 3305.94a15.39 15.39 0 0 0 -2.66-11.67 12.11 12.11 0 0 0 -9.72-5.13h-1274.77a14.21 14.21 0 0 0 -12.22 7.49 17.92 17.92 0 0 0 -1 15.57l13.81 33.47c3.16 7.67 10 12.57 17.56 12.57h1247.87c7 0 13.05-5.57 14.38-13.28z"
              fill="#91b3fa"/>
        <path d="m2401.94 2473.12c-50.59 51.74-95.85 82.16-130.5 105.13-338 223.95-725.5 197.37-844.95 175.31-192.71-35.6-354.2-98.68-494-224-317.6-284.76-302.15-878.79-59.47-1246.77 28.78-43.63 271.09-400.09 658.27-450.32 9.47-1.23 16.53-1.93 22.72-2.58 59.9-6.29 431.06-39.51 733.7 212.13 43.32 36 120.42 96.61 177.69 200.08 205 370.3 237.17 923.48-63.46 1231.02z"
              fill="url(#J)"/>
        <path d="m2336.65 1590.3q-.83-3.6-1.7-7.21c-88.17-363-457.11-585-824.06-495.83l161.39 664.42z" fill="#91b3fa"/>
        <path d="m1670.31 1749.1 646.77 222.06a680.64 680.64 0 0 0 19.69-374.8q-1.41-6.1-2.92-12.14z" fill="#91b3fa"/>
        <path d="m1672.27 1751.68 131.44 671c4.21-.83 8.42-1.68 12.63-2.59 242.74-52.32 427.35-227.52 502.71-446.33z"
              fill="#7d97f4"/>
        <path d="m1588.23 1696.29-136.5-661.45c-308.64 63.7-525.37 326.16-544.29 626.16l677 39.63a3.64 3.64 0 0 0 3.79-4.34z"
              fill="url(#K)"/>
        <path d="m1672.69 1748.82-682.24-22.67c-2.92 59.77 2.46 109.86 16.07 171.1 63.5 285.68 297.18 489.5 570.7 528.63z"
              fill="url(#L)"/>
        <path d="m1571.48 2427.94a681.82 681.82 0 0 0 233.13-5.1l-130.73-671.11z" fill="url(#M)"/>
        <path d="m1428.5 2365.19a4.46 4.46 0 0 1 -1.73-.35 660.79 660.79 0 0 1 -391-455.7c-2.25-9.24-4.32-18.61-6.15-27.86a4.54 4.54 0 1 1 8.9-1.77c1.82 9.12 3.85 18.37 6.07 27.49a651.77 651.77 0 0 0 385.61 449.45 4.54 4.54 0 0 1 -1.74 8.74z"
              fill="#fff" opacity=".61"/>
        <path d="m1922.1 2368.11a4.54 4.54 0 0 1 -1.67-8.76c168.88-67 303.14-203.31 368.35-373.91a4.54 4.54 0 1 1 8.48 3.24c-66.11 173-202.24 311.15-373.49 379.11a4.42 4.42 0 0 1 -1.67.32z"
              fill="#fff" opacity=".61"/>
        <path d="m2203.71 1361.63a4.53 4.53 0 0 1 -3.63-1.8c-81.6-108.08-193-187.13-322.32-228.62a4.54 4.54 0 1 1 2.77-8.65c131.06 42.07 244.07 122.22 326.79 231.8a4.53 4.53 0 0 1 -3.61 7.27z"
              fill="#fff" opacity=".61"/>
        <path d="m1279.08 1657.86h-.3l-347.36-22.41.76-4.9c9.14-58.9 24.18-115.92 47.32-179.47a4.54 4.54 0 1 1 8.53 3.11c-22.29 61.2-37 116.28-46.1 172.85l337.44 21.76a4.54 4.54 0 0 1 -.29 9.07z"
              fill="#fff" opacity=".74"/>
        <path d="m1551.54 1675.41a4 4 0 0 1 -.49 0l-70.86-4.58a4.54 4.54 0 1 1 .59-9.06l68.52 4.43-73.7-345.06a4.54 4.54 0 0 1 8.88-1.89l74.19 347.35a7.31 7.31 0 0 1 -7.13 8.83z"
              fill="#fff" opacity=".74"/>
    </g>
    <path d="m1235.84 2166.77-17.88-12.82 473.78-661.03 724.05-25.14 270.63-750.25.75-1.11 431.25-645.77 18.31 12.22-430.51 644.65-274.77 761.74-728.12 25.28z"
          fill="url(#N)"/>
    <circle cx="1462.24" cy="2193.14" fill="url(#O)" r="76.74"
            transform="matrix(.70710678 -.70710678 .70710678 .70710678 -1357.84 1643.53)"/>
    <circle cx="1932.88" cy="1536.51" fill="url(#P)" r="76.74"
            transform="matrix(.98804074 -.15419307 .15419307 .98804074 -449.18 283.7)"/>
    <circle cx="2652.61" cy="1498.13" fill="url(#Q)" r="76.74"
            transform="matrix(.10452846 -.9945219 .9945219 .10452846 650.05 3946.82)"/>
    <circle cx="2915.2" cy="763.24" fill="url(#R)" r="76.74" transform="matrix(.9 -.43 .43 .9 -277.77 1307.8)"/>
    <circle cx="3362.91" cy="109.54" fill="url(#S)" r="76.74"
            transform="matrix(.44307119 -.89648643 .89648643 .44307119 1539.3 3043)"/>
    <path d="m616.65 3612c-22 1.9-60.26 5-90.4 6.32-18.12.8-28.55-1-34.56-3.38 0 .68 0 1.32.06 1.91a6.24 6.24 0 0 0 5.92 5.89 1059 1059 0 0 0 118.37.12 4.44 4.44 0 0 0 3.62-6.67 37.87 37.87 0 0 0 -3.01-4.19z"
          fill="url(#T)" transform="translate(-235.34 -32.78)"/>
    <path d="m526.25 3618.27c30.14-1.32 68.37-4.42 90.4-6.32-21.66-26.57-90.4-44.48-90.4-44.48h-19.42c-13.35 19.25-15.29 37.57-15.14 47.42 6.01 2.41 16.44 4.18 34.56 3.38z"
          fill="url(#U)" transform="translate(-235.34 -32.78)"/>
    <path d="m503.56 3535.77 1.82 35.95a8.22 8.22 0 0 0 7 7.73 32 32 0 0 0 14.58-1.21 9.72 9.72 0 0 0 6.53-7.47l6.28-35z"
          fill="url(#V)" transform="translate(-235.34 -32.78)"/>
    <path d="m251.38 3618c-9.55-1.33-13.87-6.29-15.68-11.6v.14c-1.4 5.6 1.85 11.4 8.37 14.16 7.87 3.33 16.48 3.9 23.16 3.63 7.17-.3 13.75-3.27 17.37-8l.06-.08c-7.24 3.55-17.34 3.97-33.28 1.75z"
          fill="url(#W)" transform="translate(-235.34 -32.78)"/>
    <path d="m296.42 3535.54h-16c-24.39-.5-39.7 50.94-44.71 70.86 1.81 5.31 6.13 10.27 15.68 11.6 15.94 2.22 26 1.8 33.24-1.76 13.17-17.33 19.7-42.73 22.84-57.55 3.53-16.85-11.05-23.15-11.05-23.15z"
          fill="url(#X)" transform="translate(-235.34 -32.78)"/>
    <path d="m282.47 3502.17-8.89 35.36a9.61 9.61 0 0 0 5 10.88c5 2.55 12 5.23 18.42 4.46a8 8 0 0 0 6.54-5.35l13.05-37.2z"
          fill="url(#Y)" transform="translate(-235.34 -32.78)"/>
    <path d="m271.87 3512.39c11.06 9.81 47 11.11 47 11.11 129.6-311.06 182.62-355.26 182.62-355.26-18.72 117.41-3 377.34-3 377.34 21.39 9.44 49 0 49 0a2003.86 2003.86 0 0 1 66.18-492c-87.59-2-134.18-31.94-149.39-44-73.03 117.75-192.41 502.81-192.41 502.81z"
          fill="url(#Z)" transform="translate(-235.34 -32.78)"/>
    <path d="m486.51 2651.89c-16.58 82.7-10.64 230.72-6.73 298.24 1.09 19-12.15 45.28-22.86 63.23a5.64 5.64 0 0 0 2.27 7.92c17.93 9.21 78.66 37.76 149.05 41.32a10 10 0 0 0 10.1-7.5c52.21-194.95 112.85-319.53 112.85-319.53-66.95-106.91-244.68-83.68-244.68-83.68z"
          fill="url(#aa)" transform="translate(-235.34 -32.78)"/>
    <path d="m510.37 3160.88a4.16 4.16 0 0 1 -3.54-6.31c.7-1.14 17.46-28.24 51.39-44.61a4.15 4.15 0 1 1 3.6 7.48c-31.62 15.26-47.74 41.19-47.9 41.45a4.15 4.15 0 0 1 -3.55 1.99z"
          fill="url(#ab)" transform="translate(-235.34 -32.78)"/>
    <path d="m382.51 2889.24c5.33 38.53 21.06 80.55 52.54 125.19l12-9.76s-13.82-56-6-119.64c-19.41-3.79-42.34.11-58.54 4.21z"
          fill="url(#ac)" transform="translate(-235.34 -32.78)"/>
    <path d="m505 2753.93-18.52-102s-123.73 94.58-104 237.35c16.2-4.1 39.13-8 58.55-4.21 5.68-45.86 22.58-95.6 63.97-131.14z"
          fill="url(#ad)" transform="translate(-235.34 -32.78)"/>
    <path d="m731.19 2735.57-47.76 102.86c7.72 62.1 41.08 89 77.05 99.25a218.51 218.51 0 0 1 16-67c-45.92-47.43-45.29-135.11-45.29-135.11z"
          fill="url(#ae)" transform="translate(-235.34 -32.78)"/>
    <path d="m776.52 2870.7a218.51 218.51 0 0 0 -16 67c96 37.24 121.36-35 121.36-35l-17.74-3.13c-40.09 4.23-68.07-8.69-87.62-28.87z"
          fill="url(#af)" transform="translate(-235.34 -32.78)"/>
    <path d="m687.19 2608.58-23.06 84.77a16.49 16.49 0 0 1 -22 11 334 334 0 0 1 -33.24-15.18 22.22 22.22 0 0 1 -7.83-31.93l47.93-71.48z"
          fill="url(#ag)" transform="translate(-235.34 -32.78)"/>
    <path d="m925.82 2846-590.82 215a45.25 45.25 0 0 0 -25.71 61.24l1.8 3.94a42 42 0 0 0 55.91 20.82l573.7-265.43z"
          fill="url(#ah)" transform="translate(-235.34 -32.78)"/>
    <ellipse cx="962.05" cy="2683.85" fill="url(#ai)" opacity=".23" rx="291.66" ry="286.4"/>
    <path d="m1197.39 2398c-179.24 0-324.54 142.68-324.54 318.68s145.3 318.69 324.54 318.69 324.54-142.68 324.54-318.69-145.3-318.68-324.54-318.68zm0 590.56c-152.91 0-276.86-121.72-276.86-271.88s124-271.87 276.86-271.87 276.87 121.72 276.87 271.87-123.96 271.83-276.87 271.83z"
          fill="url(#aj)" transform="translate(-235.34 -32.78)"/>
    <path d="m897.53 2756.11a2.18 2.18 0 0 1 -2.17-1.9c-1-7.6-1.64-15.28-2-22.85a2.18 2.18 0 0 1 2.07-2.29 2 2 0 0 1 2.29 2.07c.36 7.46 1 15 2 22.52a2.19 2.19 0 0 1 -1.89 2.44zm2.22-89.11h-.38a2.17 2.17 0 0 1 -1.76-2.53 293.49 293.49 0 0 1 17.5-59.93c46.78-113.5 157.59-186.83 282.27-186.83a307.49 307.49 0 0 1 163.46 46.71 2.18 2.18 0 1 1 -2.32 3.69 303.16 303.16 0 0 0 -161.14-46c-122.91 0-232.13 72.28-278.24 184.13a288.35 288.35 0 0 0 -17.25 59 2.18 2.18 0 0 1 -2.14 1.76z"
          fill="#91b3fa" transform="translate(-235.34 -32.78)"/>
    <path d="m737.63 2544.19c.21 1.45-19.23 96.72-19.23 96.72l-54.16-12.25 5-93s64.88-15.84 68.39 8.53z" fill="url(#ak)"
          transform="translate(-235.34 -32.78)"/>
    <path d="m681.43 2556.35-6.43 48.77a6.89 6.89 0 0 0 0 1.87c.55 3.82 3.39 16.84 16.53 13.11 11.92-3.37 22.85-6.28 30.4-4a6.87 6.87 0 0 1 4.73 7.95c-1.77 8.65-6.12 28.08-12.47 44.39a6.85 6.85 0 0 1 -8.32 4.05c-10.27-3-31.76-9.92-47.74-19.54a6.84 6.84 0 0 1 -3.35-6.18c.52-12.31 2-49.74.75-60.23-1.14-9.84-13.23-15.74-18.48-17.86a6.76 6.76 0 0 1 -3.76-3.77c-2.43-6.09-5.78-20.19 12-26a6.87 6.87 0 0 0 4.35-8.9c-2.63-7.33-3.74-18.51 10-24.67 14-6.26 24.4 1.19 30 7.24a6.88 6.88 0 0 0 8.76 1 5.44 5.44 0 0 1 6.19.21 6.76 6.76 0 0 0 9.58-2.91c3.35-6.87 10.17-14.22 23.84-11.88 24.27 4.16 27 31.05 20.62 46.81s-32.46 9.76-45.53 1.82c-9.94-6.05-22.83.29-28.44 3.67a6.79 6.79 0 0 0 -3.23 5.05z"
          fill="url(#al)" transform="translate(-235.34 -32.78)"/>
    <path d="m653.31 2604.35s10-27.94-.28-34.78-25.43-3.29-22.09 16.95c4.16 25.18 22.37 17.83 22.37 17.83z"
          fill="url(#am)" transform="translate(-235.34 -32.78)"/>
    <path d="m442.08 3003 55.86-4.55 24.18 22.3s-5.72 7.91-23.61 3.36-42.4-5.66-42.4-5.66-24.7 11.14-25-9.7z"
          fill="url(#an)" transform="translate(-235.34 -32.78)"/>
    <path d="m874.72 2915.92c4.84 3.77 21.38-4.11 31.51-9.55a11.65 11.65 0 0 0 5.63-13.77c-2.43-7.69-6.49-17.61-11.5-18.86-8.3-2.07-45.54 26.63-25.64 42.18z"
          fill="url(#ao)" transform="translate(-235.34 -32.78)"/>
    <path d="m346.65 3138.7a2.16 2.16 0 0 1 -.71-.12c-23.08-8-28.45-21.62-28.89-31.65-.63-14.66 8.58-28.27 22.92-33.87l70.95-27.66a2.18 2.18 0 1 1 1.58 4.06l-70.95 27.67c-12.6 4.91-20.69 16.81-20.14 29.61.55 12.63 9.28 22 26 27.72a2.18 2.18 0 0 1 -.72 4.24z"
          fill="#91b3fa" transform="translate(-235.34 -32.78)"/>
    <path d="m433.56 3041.09a2.18 2.18 0 0 1 -.79-4.22l9.2-3.58a2.18 2.18 0 1 1 1.58 4.06l-9.2 3.59a2.17 2.17 0 0 1 -.79.15z"
          fill="#91b3fa" transform="translate(-235.34 -32.78)"/>
    <path d="m1261.38 1283.1 87.86 6a4.42 4.42 0 0 0 3.4-7.62l-84.25-62.39z" fill="#91b3fa"
          transform="translate(-235.34 -32.78)"/>
    <path d="m759.45 1001.92 494.81-3c11.33-.07 20.53 8.33 20.45 18.65l-2.09 249.13c-.08 10.39-9.52 18.68-20.91 18.36l-489.45-13.41c-10.88-.29-19.56-8.35-19.7-18.26l-3.28-232.69c-.14-10.3 8.91-18.7 20.17-18.78z"
          fill="#91b3fa" transform="translate(-235.34 -32.78)"/>
    <path d="m774.78 1017.16 463.34-2.65c10.61-.06 19.22 7.28 19.14 16.3l-2 217.67c-.08 9.07 7.69 21.84-3 21.56l-474.86-17.24c-10.18-.26-18.31-7.29-18.44-16l-3.07-203.3c-.13-8.93 8.34-16.28 18.89-16.34z"
          fill="#fff" opacity=".14" transform="translate(-235.34 -32.78)"/>
    <path d="m1252.33 1270-489.58-13.41a3.68 3.68 0 0 1 -3.74-3.46l-3.27-232.7a3.27 3.27 0 0 1 1.1-2.5 3.9 3.9 0 0 1 2.73-1.05l494.8-3a4 4 0 0 1 2.76 1 3.27 3.27 0 0 1 1.12 2.51l-2.08 249.12a3.69 3.69 0 0 1 -3.84 3.49zm-489.38-17 489.44 13.4 1.92-249.05-494.72 3.11z"
          fill="#fff" opacity=".77" transform="translate(-235.34 -32.78)"/>
    <path d="m788 1073.46c0 8.81 5.13 16 11.46 16h420.86c6.33 0 11.46-7.15 11.46-16s-5.13-16-11.46-16h-420.86c-6.33.04-11.46 7.19-11.46 16z"
          fill="#fff" opacity=".77" transform="translate(-235.34 -32.78)"/>
    <path d="m811.05 1116.64h394.57c8.58 0 15.54 4.28 15.54 9.57s-7 9.57-15.54 9.57h-394.57c-8.59 0-15.55-4.29-15.55-9.57s6.96-9.57 15.55-9.57z"
          fill="#fff" opacity=".77" transform="translate(-235.34 -32.78)"/>
    <path d="m795.5 1169.81c0 5.27 7 9.55 15.52 9.55h394.63c8.57 0 15.51-4.28 15.51-9.55v-5.91c0-5.37-7.18-9.68-15.89-9.55l-394.63 5.9c-8.42.13-15.14 4.37-15.14 9.56z"
          fill="#fff" opacity=".77" transform="translate(-235.34 -32.78)"/>
    <path d="m812.6 1199.93h394.57c8.59 0 15.55 4.29 15.55 9.57s-7 9.57-15.55 9.57h-394.57c-8.58 0-15.54-4.28-15.54-9.57s6.94-9.57 15.54-9.57z"
          fill="#fff" opacity=".77" transform="translate(-235.34 -32.78)"/>
</svg>